<svg xmlns="http://www.w3.org/2000/svg" xmlns:xlink="http://www.w3.org/1999/xlink" width="368.38239pt" height="191.20625pt" viewBox="-97.78133 -163.53987 368.38239 191.20625 "> 
<g transform="translate(0, 27.66638 ) scale(1,-1) translate(0,163.53987 )"> 
                                  
 <g> 
 <g stroke="rgb(0.0%,0.0%,0.0%)"> 
 <g fill="rgb(0.0%,0.0%,0.0%)"> 
 <g stroke-width="0.4pt"> 
 <g> 
 <g stroke-width="0.6pt"> 
 <g> 
 <path d=" M  -14.22636 -9.95842 h  28.45273 v  19.91684 h  -28.45273 Z  " style="fill:none"/> 
 <g> 
 <g transform="matrix(1.0,0.0,0.0,1.0,0.0,0.0)"> 
 <g fill="rgb(0.0%,0.0%,0.0%)"> 
 <text style="stroke:none" transform="scale(1,-1) translate(0.0,0)" text-anchor="middle"  font-size="10"> 
</text> 
</g> 
 </g> 
 </g> 
 </g> 
 <g> 
 <path d=" M  14.22638 -9.95842 h  28.45273 v  19.91684 h  -28.45273 Z  " style="fill:none"/> 
 <g> 
 <g transform="matrix(1.0,0.0,0.0,1.0,28.45274,0.0)"> 
 <g fill="rgb(0.0%,0.0%,0.0%)"> 
 <text style="stroke:none" transform="scale(1,-1) translate(0.0,0)" text-anchor="middle"  font-size="10"> 
</text> 
</g> 
 </g> 
 </g> 
 </g> 
 <g> 
 <path d=" M  42.67912 -9.95842 h  28.45273 v  19.91684 h  -28.45273 Z  " style="fill:none"/> 
 <g> 
 <g transform="matrix(1.0,0.0,0.0,1.0,56.90549,0.0)"> 
 <g fill="rgb(0.0%,0.0%,0.0%)"> 
 <text style="stroke:none" transform="scale(1,-1) translate(0.0,0)" text-anchor="middle"  font-size="10"> 
</text> 
</g> 
 </g> 
 </g> 
 </g> 
 <g> 
 <path d=" M  71.13187 -9.95842 h  28.45273 v  19.91684 h  -28.45273 Z  " style="fill:none"/> 
 <g> 
 <g transform="matrix(1.0,0.0,0.0,1.0,85.35823,0.0)"> 
 <g fill="rgb(0.0%,0.0%,0.0%)"> 
 <text style="stroke:none" transform="scale(1,-1) translate(0.0,0)" text-anchor="middle"  font-size="10"> 
</text> 
</g> 
 </g> 
 </g> 
 </g> 
 <g> 
 <path d=" M  99.58461 -9.95842 h  28.45273 v  19.91684 h  -28.45273 Z  " style="fill:none"/> 
 <g> 
 <g transform="matrix(1.0,0.0,0.0,1.0,113.81097,0.0)"> 
 <g fill="rgb(0.0%,0.0%,0.0%)"> 
 <text style="stroke:none" transform="scale(1,-1) translate(0.0,0)" text-anchor="middle"  font-size="10"> 
</text> 
</g> 
 </g> 
 </g> 
 </g> 
 <g> 
 <path d=" M  128.03735 -9.95842 h  28.45273 v  19.91684 h  -28.45273 Z  " style="fill:none"/> 
 <g> 
 <g transform="matrix(1.0,0.0,0.0,1.0,142.26372,0.0)"> 
 <g fill="rgb(0.0%,0.0%,0.0%)"> 
 <text style="stroke:none" transform="scale(1,-1) translate(0.0,0)" text-anchor="middle"  font-size="10"> 
</text> 
</g> 
 </g> 
 </g> 
 </g> 
 <g> 
 <path d=" M  156.4901 -9.95842 h  28.45273 v  19.91684 h  -28.45273 Z  " style="fill:none"/> 
 <g> 
 <g transform="matrix(1.0,0.0,0.0,1.0,170.71646,0.0)"> 
 <g fill="rgb(0.0%,0.0%,0.0%)"> 
 <text style="stroke:none" transform="scale(1,-1) translate(0.0,0)" text-anchor="middle"  font-size="10"> 
</text> 
</g> 
 </g> 
 </g> 
 </g> 
 <g> 
 <path d=" M  184.94284 -9.95842 h  28.45273 v  19.91684 h  -28.45273 Z  " style="fill:none"/> 
 <g> 
 <g transform="matrix(1.0,0.0,0.0,1.0,199.1692,0.0)"> 
 <g fill="rgb(0.0%,0.0%,0.0%)"> 
 <text style="stroke:none" transform="scale(1,-1) translate(0.0,0)" text-anchor="middle"  font-size="10"> 
</text> 
</g> 
 </g> 
 </g> 
 </g> 
 <g> 
 <path d=" M  213.39558 -9.95842 h  28.45273 v  19.91684 h  -28.45273 Z  " style="fill:none"/> 
 <g> 
 <g transform="matrix(1.0,0.0,0.0,1.0,227.62195,0.0)"> 
 <g fill="rgb(0.0%,0.0%,0.0%)"> 
 <text style="stroke:none" transform="scale(1,-1) translate(0.0,0)" text-anchor="middle"  font-size="10"> 
</text> 
</g> 
 </g> 
 </g> 
 </g> 
 <g> 
 <path d=" M  241.84833 -9.95842 h  28.45273 v  19.91684 h  -28.45273 Z  " style="fill:none"/> 
 <g> 
 <g transform="matrix(1.0,0.0,0.0,1.0,256.07469,0.0)"> 
 <g fill="rgb(0.0%,0.0%,0.0%)"> 
 <text style="stroke:none" transform="scale(1,-1) translate(0.0,0)" text-anchor="middle"  font-size="10"> 
</text> 
</g> 
 </g> 
 </g> 
 </g> 
 <g> 
 <g> 
 <g transform="matrix(1.0,0.0,0.0,1.0,-10.59338,17.44467)"> 
 <g fill="rgb(0.0%,0.0%,0.0%)"> 
 <text style="stroke:none" transform="scale(1,-1) translate(23.11118,0)" text-anchor="middle"  font-size="10"> 
hash array</text> 
</g> 
 </g> 
 </g> 
 </g> 
 <g> 
 <path d=" M  -8.5359 -74.27708 h  17.07181 v  42.67911 h  -17.07181 Z  " style="fill:none"/> 
 <g> 
 <g transform="matrix(1.0,0.0,0.0,1.0,0.0,-52.93753)"> 
 <g fill="rgb(0.0%,0.0%,0.0%)"> 
 <text style="stroke:none" transform="scale(1,-1) translate(0.0,0)" text-anchor="middle"  font-size="10"> 
</text> 
</g> 
 </g> 
 </g> 
 </g> 
 <g> 
 <g stroke="rgb(0.0%,0.0%,100.0%)"> 
 <path d=" M  5.69046 -10.25842 L  5.69046 -30.71297  " style="fill:none"/> 
 <g> 
 <g transform="matrix(0.0,-1.0,1.0,0.0,5.69046,-30.71297)"> 
 <g> 
 <g stroke-width="0.48pt"> 
 <g stroke-dasharray="none" stroke-dashoffset="0.0pt"> 
 <g stroke-linecap="round"> 
 <g stroke-linejoin="round"> 
 <path d=" M  -1.37997 1.83997 C  -1.26497 1.14998 0.0 0.11499 0.34499 0.0 C  0.0 -0.11499 -1.26497 -1.14998 -1.37997 -1.83997  " style="fill:none"/> 
 </g> 
 </g> 
 </g> 
 </g> 
 </g> 
 </g> 
 </g> 
 </g> 
 </g> 
 <g> 
 <g stroke="rgb(0.0%,0.0%,100.0%)"> 
 <path d=" M  -5.69046 -10.84343 L  -5.69046 -31.29797  " style="fill:none"/> 
 <g> 
 <g transform="matrix(0.0,1.0,-1.0,0.0,-5.69046,-10.84343)"> 
 <g> 
 <g stroke-width="0.48pt"> 
 <g stroke-dasharray="none" stroke-dashoffset="0.0pt"> 
 <g stroke-linecap="round"> 
 <g stroke-linejoin="round"> 
 <path d=" M  -1.37997 1.83997 C  -1.26497 1.14998 0.0 0.11499 0.34499 0.0 C  0.0 -0.11499 -1.26497 -1.14998 -1.37997 -1.83997  " style="fill:none"/> 
 </g> 
 </g> 
 </g> 
 </g> 
 </g> 
 </g> 
 </g> 
 </g> 
 </g> 
 <g> 
 <g stroke="rgb(0.0%,0.0%,100.0%)"> 
 <path d=" M  0.0 -74.57709 L  0.0 -85.373  " style="fill:none"/> 
 <g> 
 <g transform="matrix(0.0,-1.0,1.0,0.0,0.0,-85.373)"> 
 <g> 
 <g stroke-width="0.48pt"> 
 <g stroke-dasharray="none" stroke-dashoffset="0.0pt"> 
 <g stroke-linecap="round"> 
 <g stroke-linejoin="round"> 
 <path d=" M  -1.37997 1.83997 C  -1.26497 1.14998 0.0 0.11499 0.34499 0.0 C  0.0 -0.11499 -1.26497 -1.14998 -1.37997 -1.83997  " style="fill:none"/> 
 </g> 
 </g> 
 </g> 
 </g> 
 </g> 
 </g> 
 </g> 
 <g> 
 <g> 
 <g transform="matrix(1.0,0.0,0.0,1.0,-2.5,-95.88823)"> 
 <g fill="rgb(0.0%,0.0%,0.0%)"> 
 <text style="stroke:none" transform="scale(1,-1) translate(2.5,0)" text-anchor="middle"  font-size="10"> 
0</text> 
</g> 
 </g> 
 </g> 
 </g> 
 </g> 
 </g> 
 <g> 
 <g stroke="rgb(0.0%,0.0%,100.0%)"> 
 <path d=" M  28.45274 -10.25842 L  28.45274 -21.05434  " style="fill:none"/> 
 <g> 
 <g transform="matrix(0.0,-1.0,1.0,0.0,28.45274,-21.05434)"> 
 <g> 
 <g stroke-width="0.48pt"> 
 <g stroke-dasharray="none" stroke-dashoffset="0.0pt"> 
 <g stroke-linecap="round"> 
 <g stroke-linejoin="round"> 
 <path d=" M  -1.37997 1.83997 C  -1.26497 1.14998 0.0 0.11499 0.34499 0.0 C  0.0 -0.11499 -1.26497 -1.14998 -1.37997 -1.83997  " style="fill:none"/> 
 </g> 
 </g> 
 </g> 
 </g> 
 </g> 
 </g> 
 </g> 
 <g> 
 <g> 
 <g transform="matrix(1.0,0.0,0.0,1.0,25.95274,-31.56956)"> 
 <g fill="rgb(0.0%,0.0%,0.0%)"> 
 <text style="stroke:none" transform="scale(1,-1) translate(2.5,0)" text-anchor="middle"  font-size="10"> 
0</text> 
</g> 
 </g> 
 </g> 
 </g> 
 </g> 
 </g> 
 <g> 
 <path d=" M  48.36958 -74.27708 h  17.07181 v  42.67911 h  -17.07181 Z  " style="fill:none"/> 
 <g> 
 <g transform="matrix(1.0,0.0,0.0,1.0,56.90549,-52.93753)"> 
 <g fill="rgb(0.0%,0.0%,0.0%)"> 
 <text style="stroke:none" transform="scale(1,-1) translate(0.0,0)" text-anchor="middle"  font-size="10"> 
</text> 
</g> 
 </g> 
 </g> 
 </g> 
 <g> 
 <g stroke="rgb(0.0%,0.0%,100.0%)"> 
 <path d=" M  62.59595 -10.25842 L  62.59595 -30.71297  " style="fill:none"/> 
 <g> 
 <g transform="matrix(0.0,-1.0,1.0,0.0,62.59595,-30.71297)"> 
 <g> 
 <g stroke-width="0.48pt"> 
 <g stroke-dasharray="none" stroke-dashoffset="0.0pt"> 
 <g stroke-linecap="round"> 
 <g stroke-linejoin="round"> 
 <path d=" M  -1.37997 1.83997 C  -1.26497 1.14998 0.0 0.11499 0.34499 0.0 C  0.0 -0.11499 -1.26497 -1.14998 -1.37997 -1.83997  " style="fill:none"/> 
 </g> 
 </g> 
 </g> 
 </g> 
 </g> 
 </g> 
 </g> 
 </g> 
 </g> 
 <g> 
 <g stroke="rgb(0.0%,0.0%,100.0%)"> 
 <path d=" M  51.21503 -10.84343 L  51.21503 -31.29797  " style="fill:none"/> 
 <g> 
 <g transform="matrix(0.0,1.0,-1.0,0.0,51.21503,-10.84343)"> 
 <g> 
 <g stroke-width="0.48pt"> 
 <g stroke-dasharray="none" stroke-dashoffset="0.0pt"> 
 <g stroke-linecap="round"> 
 <g stroke-linejoin="round"> 
 <path d=" M  -1.37997 1.83997 C  -1.26497 1.14998 0.0 0.11499 0.34499 0.0 C  0.0 -0.11499 -1.26497 -1.14998 -1.37997 -1.83997  " style="fill:none"/> 
 </g> 
 </g> 
 </g> 
 </g> 
 </g> 
 </g> 
 </g> 
 </g> 
 </g> 
 <g> 
 <g stroke="rgb(0.0%,0.0%,100.0%)"> 
 <path d=" M  56.90549 -74.57709 L  56.90549 -85.373  " style="fill:none"/> 
 <g> 
 <g transform="matrix(0.0,-1.0,1.0,0.0,56.90549,-85.373)"> 
 <g> 
 <g stroke-width="0.48pt"> 
 <g stroke-dasharray="none" stroke-dashoffset="0.0pt"> 
 <g stroke-linecap="round"> 
 <g stroke-linejoin="round"> 
 <path d=" M  -1.37997 1.83997 C  -1.26497 1.14998 0.0 0.11499 0.34499 0.0 C  0.0 -0.11499 -1.26497 -1.14998 -1.37997 -1.83997  " style="fill:none"/> 
 </g> 
 </g> 
 </g> 
 </g> 
 </g> 
 </g> 
 </g> 
 <g> 
 <g> 
 <g transform="matrix(1.0,0.0,0.0,1.0,54.40549,-95.88823)"> 
 <g fill="rgb(0.0%,0.0%,0.0%)"> 
 <text style="stroke:none" transform="scale(1,-1) translate(2.5,0)" text-anchor="middle"  font-size="10"> 
0</text> 
</g> 
 </g> 
 </g> 
 </g> 
 </g> 
 </g> 
 <g> 
 <path d=" M  76.82233 -74.27708 h  17.07181 v  42.67911 h  -17.07181 Z  " style="fill:none"/> 
 <g> 
 <g transform="matrix(1.0,0.0,0.0,1.0,85.35823,-52.93753)"> 
 <g fill="rgb(0.0%,0.0%,0.0%)"> 
 <text style="stroke:none" transform="scale(1,-1) translate(0.0,0)" text-anchor="middle"  font-size="10"> 
</text> 
</g> 
 </g> 
 </g> 
 </g> 
 <g> 
 <path d=" M  76.82233 -138.59575 h  17.07181 v  42.67911 h  -17.07181 Z  " style="fill:none"/> 
 <g> 
 <g transform="matrix(1.0,0.0,0.0,1.0,85.35823,-117.2562)"> 
 <g fill="rgb(0.0%,0.0%,0.0%)"> 
 <text style="stroke:none" transform="scale(1,-1) translate(0.0,0)" text-anchor="middle"  font-size="10"> 
</text> 
</g> 
 </g> 
 </g> 
 </g> 
 <g> 
 <g stroke="rgb(0.0%,0.0%,100.0%)"> 
 <path d=" M  91.04869 -10.25842 L  91.04869 -30.71297  " style="fill:none"/> 
 <g> 
 <g transform="matrix(0.0,-1.0,1.0,0.0,91.04869,-30.71297)"> 
 <g> 
 <g stroke-width="0.48pt"> 
 <g stroke-dasharray="none" stroke-dashoffset="0.0pt"> 
 <g stroke-linecap="round"> 
 <g stroke-linejoin="round"> 
 <path d=" M  -1.37997 1.83997 C  -1.26497 1.14998 0.0 0.11499 0.34499 0.0 C  0.0 -0.11499 -1.26497 -1.14998 -1.37997 -1.83997  " style="fill:none"/> 
 </g> 
 </g> 
 </g> 
 </g> 
 </g> 
 </g> 
 </g> 
 </g> 
 </g> 
 <g> 
 <g stroke="rgb(0.0%,0.0%,100.0%)"> 
 <path d=" M  79.66777 -10.84343 L  79.66777 -31.29797  " style="fill:none"/> 
 <g> 
 <g transform="matrix(0.0,1.0,-1.0,0.0,79.66777,-10.84343)"> 
 <g> 
 <g stroke-width="0.48pt"> 
 <g stroke-dasharray="none" stroke-dashoffset="0.0pt"> 
 <g stroke-linecap="round"> 
 <g stroke-linejoin="round"> 
 <path d=" M  -1.37997 1.83997 C  -1.26497 1.14998 0.0 0.11499 0.34499 0.0 C  0.0 -0.11499 -1.26497 -1.14998 -1.37997 -1.83997  " style="fill:none"/> 
 </g> 
 </g> 
 </g> 
 </g> 
 </g> 
 </g> 
 </g> 
 </g> 
 </g> 
 <g> 
 <g stroke="rgb(0.0%,0.0%,100.0%)"> 
 <path d=" M  91.04869 -74.57709 L  91.04869 -95.03163  " style="fill:none"/> 
 <g> 
 <g transform="matrix(0.0,-1.0,1.0,0.0,91.04869,-95.03163)"> 
 <g> 
 <g stroke-width="0.48pt"> 
 <g stroke-dasharray="none" stroke-dashoffset="0.0pt"> 
 <g stroke-linecap="round"> 
 <g stroke-linejoin="round"> 
 <path d=" M  -1.37997 1.83997 C  -1.26497 1.14998 0.0 0.11499 0.34499 0.0 C  0.0 -0.11499 -1.26497 -1.14998 -1.37997 -1.83997  " style="fill:none"/> 
 </g> 
 </g> 
 </g> 
 </g> 
 </g> 
 </g> 
 </g> 
 </g> 
 </g> 
 <g> 
 <g stroke="rgb(0.0%,0.0%,100.0%)"> 
 <path d=" M  79.66777 -75.1621 L  79.66777 -95.61664  " style="fill:none"/> 
 <g> 
 <g transform="matrix(0.0,1.0,-1.0,0.0,79.66777,-75.1621)"> 
 <g> 
 <g stroke-width="0.48pt"> 
 <g stroke-dasharray="none" stroke-dashoffset="0.0pt"> 
 <g stroke-linecap="round"> 
 <g stroke-linejoin="round"> 
 <path d=" M  -1.37997 1.83997 C  -1.26497 1.14998 0.0 0.11499 0.34499 0.0 C  0.0 -0.11499 -1.26497 -1.14998 -1.37997 -1.83997  " style="fill:none"/> 
 </g> 
 </g> 
 </g> 
 </g> 
 </g> 
 </g> 
 </g> 
 </g> 
 </g> 
 <g> 
 <g stroke="rgb(0.0%,0.0%,100.0%)"> 
 <path d=" M  85.35823 -138.89575 L  85.35823 -149.69167  " style="fill:none"/> 
 <g> 
 <g transform="matrix(0.0,-1.0,1.0,0.0,85.35823,-149.69167)"> 
 <g> 
 <g stroke-width="0.48pt"> 
 <g stroke-dasharray="none" stroke-dashoffset="0.0pt"> 
 <g stroke-linecap="round"> 
 <g stroke-linejoin="round"> 
 <path d=" M  -1.37997 1.83997 C  -1.26497 1.14998 0.0 0.11499 0.34499 0.0 C  0.0 -0.11499 -1.26497 -1.14998 -1.37997 -1.83997  " style="fill:none"/> 
 </g> 
 </g> 
 </g> 
 </g> 
 </g> 
 </g> 
 </g> 
 <g> 
 <g> 
 <g transform="matrix(1.0,0.0,0.0,1.0,82.85823,-160.2069)"> 
 <g fill="rgb(0.0%,0.0%,0.0%)"> 
 <text style="stroke:none" transform="scale(1,-1) translate(2.5,0)" text-anchor="middle"  font-size="10"> 
0</text> 
</g> 
 </g> 
 </g> 
 </g> 
 </g> 
 </g> 
 <g> 
 <g stroke="rgb(0.0%,0.0%,100.0%)"> 
 <path d=" M  113.81097 -10.25842 L  113.81097 -21.05434  " style="fill:none"/> 
 <g> 
 <g transform="matrix(0.0,-1.0,1.0,0.0,113.81097,-21.05434)"> 
 <g> 
 <g stroke-width="0.48pt"> 
 <g stroke-dasharray="none" stroke-dashoffset="0.0pt"> 
 <g stroke-linecap="round"> 
 <g stroke-linejoin="round"> 
 <path d=" M  -1.37997 1.83997 C  -1.26497 1.14998 0.0 0.11499 0.34499 0.0 C  0.0 -0.11499 -1.26497 -1.14998 -1.37997 -1.83997  " style="fill:none"/> 
 </g> 
 </g> 
 </g> 
 </g> 
 </g> 
 </g> 
 </g> 
 <g> 
 <g> 
 <g transform="matrix(1.0,0.0,0.0,1.0,111.31097,-31.56956)"> 
 <g fill="rgb(0.0%,0.0%,0.0%)"> 
 <text style="stroke:none" transform="scale(1,-1) translate(2.5,0)" text-anchor="middle"  font-size="10"> 
0</text> 
</g> 
 </g> 
 </g> 
 </g> 
 </g> 
 </g> 
 <g> 
 <g stroke="rgb(0.0%,0.0%,100.0%)"> 
 <path d=" M  142.26372 -10.25842 L  142.26372 -21.05434  " style="fill:none"/> 
 <g> 
 <g transform="matrix(0.0,-1.0,1.0,0.0,142.26372,-21.05434)"> 
 <g> 
 <g stroke-width="0.48pt"> 
 <g stroke-dasharray="none" stroke-dashoffset="0.0pt"> 
 <g stroke-linecap="round"> 
 <g stroke-linejoin="round"> 
 <path d=" M  -1.37997 1.83997 C  -1.26497 1.14998 0.0 0.11499 0.34499 0.0 C  0.0 -0.11499 -1.26497 -1.14998 -1.37997 -1.83997  " style="fill:none"/> 
 </g> 
 </g> 
 </g> 
 </g> 
 </g> 
 </g> 
 </g> 
 <g> 
 <g> 
 <g transform="matrix(1.0,0.0,0.0,1.0,139.76372,-31.56956)"> 
 <g fill="rgb(0.0%,0.0%,0.0%)"> 
 <text style="stroke:none" transform="scale(1,-1) translate(2.5,0)" text-anchor="middle"  font-size="10"> 
0</text> 
</g> 
 </g> 
 </g> 
 </g> 
 </g> 
 </g> 
 <g> 
 <g stroke="rgb(0.0%,0.0%,100.0%)"> 
 <path d=" M  170.71646 -10.25842 L  170.71646 -21.05434  " style="fill:none"/> 
 <g> 
 <g transform="matrix(0.0,-1.0,1.0,0.0,170.71646,-21.05434)"> 
 <g> 
 <g stroke-width="0.48pt"> 
 <g stroke-dasharray="none" stroke-dashoffset="0.0pt"> 
 <g stroke-linecap="round"> 
 <g stroke-linejoin="round"> 
 <path d=" M  -1.37997 1.83997 C  -1.26497 1.14998 0.0 0.11499 0.34499 0.0 C  0.0 -0.11499 -1.26497 -1.14998 -1.37997 -1.83997  " style="fill:none"/> 
 </g> 
 </g> 
 </g> 
 </g> 
 </g> 
 </g> 
 </g> 
 <g> 
 <g> 
 <g transform="matrix(1.0,0.0,0.0,1.0,168.21646,-31.56956)"> 
 <g fill="rgb(0.0%,0.0%,0.0%)"> 
 <text style="stroke:none" transform="scale(1,-1) translate(2.5,0)" text-anchor="middle"  font-size="10"> 
0</text> 
</g> 
 </g> 
 </g> 
 </g> 
 </g> 
 </g> 
 <g> 
 <path d=" M  190.6333 -74.27708 h  17.07181 v  42.67911 h  -17.07181 Z  " style="fill:none"/> 
 <g> 
 <g transform="matrix(1.0,0.0,0.0,1.0,199.1692,-52.93753)"> 
 <g fill="rgb(0.0%,0.0%,0.0%)"> 
 <text style="stroke:none" transform="scale(1,-1) translate(0.0,0)" text-anchor="middle"  font-size="10"> 
</text> 
</g> 
 </g> 
 </g> 
 </g> 
 <g> 
 <path d=" M  190.6333 -138.59575 h  17.07181 v  42.67911 h  -17.07181 Z  " style="fill:none"/> 
 <g> 
 <g transform="matrix(1.0,0.0,0.0,1.0,199.1692,-117.2562)"> 
 <g fill="rgb(0.0%,0.0%,0.0%)"> 
 <text style="stroke:none" transform="scale(1,-1) translate(0.0,0)" text-anchor="middle"  font-size="10"> 
</text> 
</g> 
 </g> 
 </g> 
 </g> 
 <g> 
 <g stroke="rgb(0.0%,0.0%,100.0%)"> 
 <path d=" M  204.85966 -10.25842 L  204.85966 -30.71297  " style="fill:none"/> 
 <g> 
 <g transform="matrix(0.0,-1.0,1.0,0.0,204.85966,-30.71297)"> 
 <g> 
 <g stroke-width="0.48pt"> 
 <g stroke-dasharray="none" stroke-dashoffset="0.0pt"> 
 <g stroke-linecap="round"> 
 <g stroke-linejoin="round"> 
 <path d=" M  -1.37997 1.83997 C  -1.26497 1.14998 0.0 0.11499 0.34499 0.0 C  0.0 -0.11499 -1.26497 -1.14998 -1.37997 -1.83997  " style="fill:none"/> 
 </g> 
 </g> 
 </g> 
 </g> 
 </g> 
 </g> 
 </g> 
 </g> 
 </g> 
 <g> 
 <g stroke="rgb(0.0%,0.0%,100.0%)"> 
 <path d=" M  193.47874 -10.84343 L  193.47874 -31.29797  " style="fill:none"/> 
 <g> 
 <g transform="matrix(0.0,1.0,-1.0,0.0,193.47874,-10.84343)"> 
 <g> 
 <g stroke-width="0.48pt"> 
 <g stroke-dasharray="none" stroke-dashoffset="0.0pt"> 
 <g stroke-linecap="round"> 
 <g stroke-linejoin="round"> 
 <path d=" M  -1.37997 1.83997 C  -1.26497 1.14998 0.0 0.11499 0.34499 0.0 C  0.0 -0.11499 -1.26497 -1.14998 -1.37997 -1.83997  " style="fill:none"/> 
 </g> 
 </g> 
 </g> 
 </g> 
 </g> 
 </g> 
 </g> 
 </g> 
 </g> 
 <g> 
 <g stroke="rgb(0.0%,0.0%,100.0%)"> 
 <path d=" M  204.85966 -74.57709 L  204.85966 -95.03163  " style="fill:none"/> 
 <g> 
 <g transform="matrix(0.0,-1.0,1.0,0.0,204.85966,-95.03163)"> 
 <g> 
 <g stroke-width="0.48pt"> 
 <g stroke-dasharray="none" stroke-dashoffset="0.0pt"> 
 <g stroke-linecap="round"> 
 <g stroke-linejoin="round"> 
 <path d=" M  -1.37997 1.83997 C  -1.26497 1.14998 0.0 0.11499 0.34499 0.0 C  0.0 -0.11499 -1.26497 -1.14998 -1.37997 -1.83997  " style="fill:none"/> 
 </g> 
 </g> 
 </g> 
 </g> 
 </g> 
 </g> 
 </g> 
 </g> 
 </g> 
 <g> 
 <g stroke="rgb(0.0%,0.0%,100.0%)"> 
 <path d=" M  193.47874 -75.1621 L  193.47874 -95.61664  " style="fill:none"/> 
 <g> 
 <g transform="matrix(0.0,1.0,-1.0,0.0,193.47874,-75.1621)"> 
 <g> 
 <g stroke-width="0.48pt"> 
 <g stroke-dasharray="none" stroke-dashoffset="0.0pt"> 
 <g stroke-linecap="round"> 
 <g stroke-linejoin="round"> 
 <path d=" M  -1.37997 1.83997 C  -1.26497 1.14998 0.0 0.11499 0.34499 0.0 C  0.0 -0.11499 -1.26497 -1.14998 -1.37997 -1.83997  " style="fill:none"/> 
 </g> 
 </g> 
 </g> 
 </g> 
 </g> 
 </g> 
 </g> 
 </g> 
 </g> 
 <g> 
 <g stroke="rgb(0.0%,0.0%,100.0%)"> 
 <path d=" M  199.1692 -138.89575 L  199.1692 -149.69167  " style="fill:none"/> 
 <g> 
 <g transform="matrix(0.0,-1.0,1.0,0.0,199.1692,-149.69167)"> 
 <g> 
 <g stroke-width="0.48pt"> 
 <g stroke-dasharray="none" stroke-dashoffset="0.0pt"> 
 <g stroke-linecap="round"> 
 <g stroke-linejoin="round"> 
 <path d=" M  -1.37997 1.83997 C  -1.26497 1.14998 0.0 0.11499 0.34499 0.0 C  0.0 -0.11499 -1.26497 -1.14998 -1.37997 -1.83997  " style="fill:none"/> 
 </g> 
 </g> 
 </g> 
 </g> 
 </g> 
 </g> 
 </g> 
 <g> 
 <g> 
 <g transform="matrix(1.0,0.0,0.0,1.0,196.6692,-160.2069)"> 
 <g fill="rgb(0.0%,0.0%,0.0%)"> 
 <text style="stroke:none" transform="scale(1,-1) translate(2.5,0)" text-anchor="middle"  font-size="10"> 
0</text> 
</g> 
 </g> 
 </g> 
 </g> 
 </g> 
 </g> 
 <g> 
 <g stroke="rgb(0.0%,0.0%,100.0%)"> 
 <path d=" M  227.62195 -10.25842 L  227.62195 -21.05434  " style="fill:none"/> 
 <g> 
 <g transform="matrix(0.0,-1.0,1.0,0.0,227.62195,-21.05434)"> 
 <g> 
 <g stroke-width="0.48pt"> 
 <g stroke-dasharray="none" stroke-dashoffset="0.0pt"> 
 <g stroke-linecap="round"> 
 <g stroke-linejoin="round"> 
 <path d=" M  -1.37997 1.83997 C  -1.26497 1.14998 0.0 0.11499 0.34499 0.0 C  0.0 -0.11499 -1.26497 -1.14998 -1.37997 -1.83997  " style="fill:none"/> 
 </g> 
 </g> 
 </g> 
 </g> 
 </g> 
 </g> 
 </g> 
 <g> 
 <g> 
 <g transform="matrix(1.0,0.0,0.0,1.0,225.12195,-31.56956)"> 
 <g fill="rgb(0.0%,0.0%,0.0%)"> 
 <text style="stroke:none" transform="scale(1,-1) translate(2.5,0)" text-anchor="middle"  font-size="10"> 
0</text> 
</g> 
 </g> 
 </g> 
 </g> 
 </g> 
 </g> 
 <g> 
 <g stroke="rgb(0.0%,0.0%,100.0%)"> 
 <path d=" M  256.07469 -10.25842 L  256.07469 -21.05434  " style="fill:none"/> 
 <g> 
 <g transform="matrix(0.0,-1.0,1.0,0.0,256.07469,-21.05434)"> 
 <g> 
 <g stroke-width="0.48pt"> 
 <g stroke-dasharray="none" stroke-dashoffset="0.0pt"> 
 <g stroke-linecap="round"> 
 <g stroke-linejoin="round"> 
 <path d=" M  -1.37997 1.83997 C  -1.26497 1.14998 0.0 0.11499 0.34499 0.0 C  0.0 -0.11499 -1.26497 -1.14998 -1.37997 -1.83997  " style="fill:none"/> 
 </g> 
 </g> 
 </g> 
 </g> 
 </g> 
 </g> 
 </g> 
 <g> 
 <g> 
 <g transform="matrix(1.0,0.0,0.0,1.0,253.57469,-31.56956)"> 
 <g fill="rgb(0.0%,0.0%,0.0%)"> 
 <text style="stroke:none" transform="scale(1,-1) translate(2.5,0)" text-anchor="middle"  font-size="10"> 
0</text> 
</g> 
 </g> 
 </g> 
 </g> 
 </g> 
 </g> 
 <g> 
 <path d=" M  -65.44139 -74.27708 h  17.07181 v  42.67911 h  -17.07181 Z  " style="fill:none"/> 
 <g> 
 <g transform="matrix(1.0,0.0,0.0,1.0,-56.90549,-52.93753)"> 
 <g fill="rgb(0.0%,0.0%,0.0%)"> 
 <text style="stroke:none" transform="scale(1,-1) translate(0.0,0)" text-anchor="middle"  font-size="10"> 
</text> 
</g> 
 </g> 
 </g> 
 </g> 
 <g> 
 <g> 
 <g transform="matrix(1.0,0.0,0.0,1.0,-73.46109,-27.665)"> 
 <g fill="rgb(0.0%,0.0%,0.0%)"> 
 <text style="stroke:none" transform="scale(1,-1) translate(16.5556,0)" text-anchor="middle"  font-size="10"> 
sentinel</text> 
</g> 
 </g> 
 </g> 
 </g> 
 <g> 
 <g stroke="rgb(100.0%,100.0%,100.0%)"> 
 <g> 
 <g stroke="rgb(100.0%,100.0%,100.0%)"> 
 <path d=" M  -65.44139 -138.59575 h  17.07181 v  42.67911 h  -17.07181 Z  " style="fill:none"/> 
 </g> 
 </g> 
 <g> 
 <g transform="matrix(1.0,0.0,0.0,1.0,-56.90549,-117.2562)"> 
 <g fill="rgb(0.0%,0.0%,0.0%)"> 
 <text style="stroke:none" transform="scale(1,-1) translate(0.0,0)" text-anchor="middle"  font-size="10"> 
</text> 
</g> 
 </g> 
 </g> 
 </g> 
 </g> 
 <g> 
 <g stroke="rgb(0.0%,60.00061%,0.0%)"> 
 <path d=" M  -48.06958 -44.40163 L  -9.42091 -44.40163  " style="fill:none"/> 
 <g> 
 <g transform="matrix(1.0,0.0,0.0,1.0,-9.42091,-44.40163)"> 
 <g> 
 <g stroke-width="0.48pt"> 
 <g stroke-dasharray="none" stroke-dashoffset="0.0pt"> 
 <g stroke-linecap="round"> 
 <g stroke-linejoin="round"> 
 <path d=" M  -1.37997 1.83997 C  -1.26497 1.14998 0.0 0.11499 0.34499 0.0 C  0.0 -0.11499 -1.26497 -1.14998 -1.37997 -1.83997  " style="fill:none"/> 
 </g> 
 </g> 
 </g> 
 </g> 
 </g> 
 </g> 
 </g> 
 <g> 
 <g> 
 <g transform="matrix(1.0,0.0,0.0,1.0,-40.40587,-43.10162)"> 
 <g fill="rgb(0.0%,0.0%,0.0%)"> 
 <text style="stroke:none" transform="scale(1,-1) translate(11.95313,0)" text-anchor="middle"  font-size="10"> 
<tspan font-family="rm-lmtt" font-size="8">list</tspan><tspan font-family="rm-lmtt" font-size="8">_next</tspan></text> 
</g> 
 </g> 
 </g> 
 </g> 
 </g> 
 </g> 
 <g> 
 <g stroke="rgb(0.0%,60.00061%,0.0%)"> 
 <path d=" M  -47.48457 -61.47343 L  -8.8359 -61.47343  " style="fill:none"/> 
 <g> 
 <g transform="matrix(-1.0,0.0,0.0,-1.0,-47.48457,-61.47343)"> 
 <g> 
 <g stroke-width="0.48pt"> 
 <g stroke-dasharray="none" stroke-dashoffset="0.0pt"> 
 <g stroke-linecap="round"> 
 <g stroke-linejoin="round"> 
 <path d=" M  -1.37997 1.83997 C  -1.26497 1.14998 0.0 0.11499 0.34499 0.0 C  0.0 -0.11499 -1.26497 -1.14998 -1.37997 -1.83997  " style="fill:none"/> 
 </g> 
 </g> 
 </g> 
 </g> 
 </g> 
 </g> 
 </g> 
 <g> 
 <g> 
 <g transform="matrix(1.0,0.0,0.0,1.0,-40.40587,-59.06233)"> 
 <g fill="rgb(0.0%,0.0%,0.0%)"> 
 <text style="stroke:none" transform="scale(1,-1) translate(11.95313,0)" text-anchor="middle"  font-size="10"> 
<tspan font-family="rm-lmtt" font-size="8">list</tspan><tspan font-family="rm-lmtt" font-size="8">_prev</tspan></text> 
</g> 
 </g> 
 </g> 
 </g> 
 </g> 
 </g> 
 <g> 
 <g stroke="rgb(0.0%,60.00061%,0.0%)"> 
 <path d=" M  8.8359 -44.40163 L  47.48457 -44.40163  " style="fill:none"/> 
 <g> 
 <g transform="matrix(1.0,0.0,0.0,1.0,47.48457,-44.40163)"> 
 <g> 
 <g stroke-width="0.48pt"> 
 <g stroke-dasharray="none" stroke-dashoffset="0.0pt"> 
 <g stroke-linecap="round"> 
 <g stroke-linejoin="round"> 
 <path d=" M  -1.37997 1.83997 C  -1.26497 1.14998 0.0 0.11499 0.34499 0.0 C  0.0 -0.11499 -1.26497 -1.14998 -1.37997 -1.83997  " style="fill:none"/> 
 </g> 
 </g> 
 </g> 
 </g> 
 </g> 
 </g> 
 </g> 
 <g> 
 <g> 
 <g transform="matrix(1.0,0.0,0.0,1.0,16.49962,-43.10162)"> 
 <g fill="rgb(0.0%,0.0%,0.0%)"> 
 <text style="stroke:none" transform="scale(1,-1) translate(11.95313,0)" text-anchor="middle"  font-size="10"> 
<tspan font-family="rm-lmtt" font-size="8">list</tspan><tspan font-family="rm-lmtt" font-size="8">_next</tspan></text> 
</g> 
 </g> 
 </g> 
 </g> 
 </g> 
 </g> 
 <g> 
 <g stroke="rgb(0.0%,60.00061%,0.0%)"> 
 <path d=" M  9.42091 -61.47343 L  48.06958 -61.47343  " style="fill:none"/> 
 <g> 
 <g transform="matrix(-1.0,0.0,0.0,-1.0,9.42091,-61.47343)"> 
 <g> 
 <g stroke-width="0.48pt"> 
 <g stroke-dasharray="none" stroke-dashoffset="0.0pt"> 
 <g stroke-linecap="round"> 
 <g stroke-linejoin="round"> 
 <path d=" M  -1.37997 1.83997 C  -1.26497 1.14998 0.0 0.11499 0.34499 0.0 C  0.0 -0.11499 -1.26497 -1.14998 -1.37997 -1.83997  " style="fill:none"/> 
 </g> 
 </g> 
 </g> 
 </g> 
 </g> 
 </g> 
 </g> 
 <g> 
 <g> 
 <g transform="matrix(1.0,0.0,0.0,1.0,16.49962,-59.06233)"> 
 <g fill="rgb(0.0%,0.0%,0.0%)"> 
 <text style="stroke:none" transform="scale(1,-1) translate(11.95313,0)" text-anchor="middle"  font-size="10"> 
<tspan font-family="rm-lmtt" font-size="8">list</tspan><tspan font-family="rm-lmtt" font-size="8">_prev</tspan></text> 
</g> 
 </g> 
 </g> 
 </g> 
 </g> 
 </g> 
 <g> 
 <g stroke="rgb(0.0%,60.00061%,0.0%)"> 
 <path d=" M  65.7414 -44.40163 L  75.93732 -44.40163  " style="fill:none"/> 
 <g> 
 <g transform="matrix(1.0,0.0,0.0,1.0,75.93732,-44.40163)"> 
 <g> 
 <g stroke-width="0.48pt"> 
 <g stroke-dasharray="none" stroke-dashoffset="0.0pt"> 
 <g stroke-linecap="round"> 
 <g stroke-linejoin="round"> 
 <path d=" M  -1.37997 1.83997 C  -1.26497 1.14998 0.0 0.11499 0.34499 0.0 C  0.0 -0.11499 -1.26497 -1.14998 -1.37997 -1.83997  " style="fill:none"/> 
 </g> 
 </g> 
 </g> 
 </g> 
 </g> 
 </g> 
 </g> 
 </g> 
 </g> 
 <g> 
 <g stroke="rgb(0.0%,60.00061%,0.0%)"> 
 <path d=" M  66.3264 -61.47343 L  76.52232 -61.47343  " style="fill:none"/> 
 <g> 
 <g transform="matrix(-1.0,0.0,0.0,-1.0,66.3264,-61.47343)"> 
 <g> 
 <g stroke-width="0.48pt"> 
 <g stroke-dasharray="none" stroke-dashoffset="0.0pt"> 
 <g stroke-linecap="round"> 
 <g stroke-linejoin="round"> 
 <path d=" M  -1.37997 1.83997 C  -1.26497 1.14998 0.0 0.11499 0.34499 0.0 C  0.0 -0.11499 -1.26497 -1.14998 -1.37997 -1.83997  " style="fill:none"/> 
 </g> 
 </g> 
 </g> 
 </g> 
 </g> 
 </g> 
 </g> 
 </g> 
 </g> 
 <g> 
 <g stroke="rgb(0.0%,60.00061%,0.0%)"> 
 <path d=" M  94.19414 -44.40163 L  189.74829 -44.40163  " style="fill:none"/> 
 <g> 
 <g transform="matrix(1.0,0.0,0.0,1.0,189.74829,-44.40163)"> 
 <g> 
 <g stroke-width="0.48pt"> 
 <g stroke-dasharray="none" stroke-dashoffset="0.0pt"> 
 <g stroke-linecap="round"> 
 <g stroke-linejoin="round"> 
 <path d=" M  -1.37997 1.83997 C  -1.26497 1.14998 0.0 0.11499 0.34499 0.0 C  0.0 -0.11499 -1.26497 -1.14998 -1.37997 -1.83997  " style="fill:none"/> 
 </g> 
 </g> 
 </g> 
 </g> 
 </g> 
 </g> 
 </g> 
 <g> 
 <g> 
 <g transform="matrix(1.0,0.0,0.0,1.0,130.3106,-43.10162)"> 
 <g fill="rgb(0.0%,0.0%,0.0%)"> 
 <text style="stroke:none" transform="scale(1,-1) translate(11.95313,0)" text-anchor="middle"  font-size="10"> 
<tspan font-family="rm-lmtt" font-size="8">list</tspan><tspan font-family="rm-lmtt" font-size="8">_next</tspan></text> 
</g> 
 </g> 
 </g> 
 </g> 
 </g> 
 </g> 
 <g> 
 <g stroke="rgb(0.0%,60.00061%,0.0%)"> 
 <path d=" M  94.77914 -61.47343 L  190.3333 -61.47343  " style="fill:none"/> 
 <g> 
 <g transform="matrix(-1.0,0.0,0.0,-1.0,94.77914,-61.47343)"> 
 <g> 
 <g stroke-width="0.48pt"> 
 <g stroke-dasharray="none" stroke-dashoffset="0.0pt"> 
 <g stroke-linecap="round"> 
 <g stroke-linejoin="round"> 
 <path d=" M  -1.37997 1.83997 C  -1.26497 1.14998 0.0 0.11499 0.34499 0.0 C  0.0 -0.11499 -1.26497 -1.14998 -1.37997 -1.83997  " style="fill:none"/> 
 </g> 
 </g> 
 </g> 
 </g> 
 </g> 
 </g> 
 </g> 
 <g> 
 <g> 
 <g transform="matrix(1.0,0.0,0.0,1.0,130.3106,-59.06233)"> 
 <g fill="rgb(0.0%,0.0%,0.0%)"> 
 <text style="stroke:none" transform="scale(1,-1) translate(11.95313,0)" text-anchor="middle"  font-size="10"> 
<tspan font-family="rm-lmtt" font-size="8">list</tspan><tspan font-family="rm-lmtt" font-size="8">_prev</tspan></text> 
</g> 
 </g> 
 </g> 
 </g> 
 </g> 
 </g> 
 <g> 
 <g stroke="rgb(0.0%,60.00061%,0.0%)"> 
 <path d=" M  208.00511 -44.40163 C  239.74504 -44.40163 239.74504 -125.7921 208.59012 -125.7921  " style="fill:none"/> 
 <g> 
 <g transform="matrix(-1.0,0.0,0.0,-1.0,208.59012,-125.7921)"> 
 <g> 
 <g stroke-width="0.48pt"> 
 <g stroke-dasharray="none" stroke-dashoffset="0.0pt"> 
 <g stroke-linecap="round"> 
 <g stroke-linejoin="round"> 
 <path d=" M  -1.37997 1.83997 C  -1.26497 1.14998 0.0 0.11499 0.34499 0.0 C  0.0 -0.11499 -1.26497 -1.14998 -1.37997 -1.83997  " style="fill:none"/> 
 </g> 
 </g> 
 </g> 
 </g> 
 </g> 
 </g> 
 </g> 
 <g> 
 <g> 
 <g transform="matrix(0.0,-1.0,1.0,0.0,233.11003,-73.1437)"> 
 <g fill="rgb(0.0%,0.0%,0.0%)"> 
 <text style="stroke:none" transform="scale(1,-1) translate(11.95313,0)" text-anchor="middle"  font-size="10"> 
<tspan font-family="rm-lmtt" font-size="8">list</tspan><tspan font-family="rm-lmtt" font-size="8">_next</tspan></text> 
</g> 
 </g> 
 </g> 
 </g> 
 </g> 
 </g> 
 <g> 
 <g stroke="rgb(0.0%,60.00061%,0.0%)"> 
 <path d=" M  208.59012 -61.47343 C  226.43002 -61.47343 226.43002 -108.72029 208.00511 -108.72029  " style="fill:none"/> 
 <g> 
 <g transform="matrix(-1.0,0.0,0.0,-1.0,208.59012,-61.47343)"> 
 <g> 
 <g stroke-width="0.48pt"> 
 <g stroke-dasharray="none" stroke-dashoffset="0.0pt"> 
 <g stroke-linecap="round"> 
 <g stroke-linejoin="round"> 
 <path d=" M  -1.37997 1.83997 C  -1.26497 1.14998 0.0 0.11499 0.34499 0.0 C  0.0 -0.11499 -1.26497 -1.14998 -1.37997 -1.83997  " style="fill:none"/> 
 </g> 
 </g> 
 </g> 
 </g> 
 </g> 
 </g> 
 </g> 
 <g> 
 <g> 
 <g transform="matrix(0.0,-1.0,1.0,0.0,224.2349,-73.1437)"> 
 <g fill="rgb(0.0%,0.0%,0.0%)"> 
 <text style="stroke:none" transform="scale(1,-1) translate(11.95313,0)" text-anchor="middle"  font-size="10"> 
<tspan font-family="rm-lmtt" font-size="8">list</tspan><tspan font-family="rm-lmtt" font-size="8">_prev</tspan></text> 
</g> 
 </g> 
 </g> 
 </g> 
 </g> 
 </g> 
 <g> 
 <g stroke="rgb(0.0%,60.00061%,0.0%)"> 
 <path d=" M  190.3333 -125.7921 L  94.77914 -125.7921  " style="fill:none"/> 
 <g> 
 <g transform="matrix(-1.0,0.0,0.0,-1.0,94.77914,-125.7921)"> 
 <g> 
 <g stroke-width="0.48pt"> 
 <g stroke-dasharray="none" stroke-dashoffset="0.0pt"> 
 <g stroke-linecap="round"> 
 <g stroke-linejoin="round"> 
 <path d=" M  -1.37997 1.83997 C  -1.26497 1.14998 0.0 0.11499 0.34499 0.0 C  0.0 -0.11499 -1.26497 -1.14998 -1.37997 -1.83997  " style="fill:none"/> 
 </g> 
 </g> 
 </g> 
 </g> 
 </g> 
 </g> 
 </g> 
 <g> 
 <g> 
 <g transform="matrix(1.0,0.0,0.0,1.0,130.3106,-124.4921)"> 
 <g fill="rgb(0.0%,0.0%,0.0%)"> 
 <text style="stroke:none" transform="scale(1,-1) translate(11.95313,0)" text-anchor="middle"  font-size="10"> 
<tspan font-family="rm-lmtt" font-size="8">list</tspan><tspan font-family="rm-lmtt" font-size="8">_next</tspan></text> 
</g> 
 </g> 
 </g> 
 </g> 
 </g> 
 </g> 
 <g> 
 <g stroke="rgb(0.0%,60.00061%,0.0%)"> 
 <path d=" M  189.74829 -108.72029 L  94.19414 -108.72029  " style="fill:none"/> 
 <g> 
 <g transform="matrix(1.0,0.0,0.0,1.0,189.74829,-108.72029)"> 
 <g> 
 <g stroke-width="0.48pt"> 
 <g stroke-dasharray="none" stroke-dashoffset="0.0pt"> 
 <g stroke-linecap="round"> 
 <g stroke-linejoin="round"> 
 <path d=" M  -1.37997 1.83997 C  -1.26497 1.14998 0.0 0.11499 0.34499 0.0 C  0.0 -0.11499 -1.26497 -1.14998 -1.37997 -1.83997  " style="fill:none"/> 
 </g> 
 </g> 
 </g> 
 </g> 
 </g> 
 </g> 
 </g> 
 <g> 
 <g> 
 <g transform="matrix(1.0,0.0,0.0,1.0,130.3106,-106.30919)"> 
 <g fill="rgb(0.0%,0.0%,0.0%)"> 
 <text style="stroke:none" transform="scale(1,-1) translate(11.95313,0)" text-anchor="middle"  font-size="10"> 
<tspan font-family="rm-lmtt" font-size="8">list</tspan><tspan font-family="rm-lmtt" font-size="8">_prev</tspan></text> 
</g> 
 </g> 
 </g> 
 </g> 
 </g> 
 </g> 
 <g> 
 <g stroke="rgb(0.0%,60.00061%,0.0%)"> 
 <path d=" M  76.52232 -125.7921 L  -65.7414 -125.7921 C  -97.48132 -125.7921 -97.48132 -44.40163 -66.3264 -44.40163  " style="fill:none"/> 
 <g> 
 <g transform="matrix(1.0,0.0,0.0,1.0,-66.3264,-44.40163)"> 
 <g> 
 <g stroke-width="0.48pt"> 
 <g stroke-dasharray="none" stroke-dashoffset="0.0pt"> 
 <g stroke-linecap="round"> 
 <g stroke-linejoin="round"> 
 <path d=" M  -1.37997 1.83997 C  -1.26497 1.14998 0.0 0.11499 0.34499 0.0 C  0.0 -0.11499 -1.26497 -1.14998 -1.37997 -1.83997  " style="fill:none"/> 
 </g> 
 </g> 
 </g> 
 </g> 
 </g> 
 </g> 
 </g> 
 <g> 
 <g> 
 <g transform="matrix(1.0,0.0,0.0,1.0,-6.56265,-124.4921)"> 
 <g fill="rgb(0.0%,0.0%,0.0%)"> 
 <text style="stroke:none" transform="scale(1,-1) translate(11.95313,0)" text-anchor="middle"  font-size="10"> 
<tspan font-family="rm-lmtt" font-size="8">list</tspan><tspan font-family="rm-lmtt" font-size="8">_next</tspan></text> 
</g> 
 </g> 
 </g> 
 </g> 
 </g> 
 </g> 
 <g> 
 <g stroke="rgb(0.0%,60.00061%,0.0%)"> 
 <path d=" M  75.93732 -108.72029 L  -65.7414 -108.72029 C  -84.1663 -108.72029 -84.1663 -61.47343 -65.7414 -61.47343  " style="fill:none"/> 
 <g> 
 <g transform="matrix(1.0,0.0,0.0,1.0,75.93732,-108.72029)"> 
 <g> 
 <g stroke-width="0.48pt"> 
 <g stroke-dasharray="none" stroke-dashoffset="0.0pt"> 
 <g stroke-linecap="round"> 
 <g stroke-linejoin="round"> 
 <path d=" M  -1.37997 1.83997 C  -1.26497 1.14998 0.0 0.11499 0.34499 0.0 C  0.0 -0.11499 -1.26497 -1.14998 -1.37997 -1.83997  " style="fill:none"/> 
 </g> 
 </g> 
 </g> 
 </g> 
 </g> 
 </g> 
 </g> 
 <g> 
 <g> 
 <g transform="matrix(1.0,0.0,0.0,1.0,-6.56265,-106.30919)"> 
 <g fill="rgb(0.0%,0.0%,0.0%)"> 
 <text style="stroke:none" transform="scale(1,-1) translate(11.95313,0)" text-anchor="middle"  font-size="10"> 
<tspan font-family="rm-lmtt" font-size="8">list</tspan><tspan font-family="rm-lmtt" font-size="8">_prev</tspan></text> 
</g> 
 </g> 
 </g> 
 </g> 
 </g> 
 </g> 
 </g> 
 </g> 
 </g> 
 </g> 
 </g> 
 </g> 
                                                                              </g> 
</svg> 
